# File created by Blade
# Date/Time:  Wed Jan 21 14:55:15 2015
# Frame Rate: 120.000 fps
#------------------------------------------------------
:FULLY-SPECIFIED
:DEGREES
430
root 18.874673 17.528824 -19.867450 -111.733817 82.378839 -127.926057
Spine -12.308608 -4.749819 9.515686
Head 8.608671 0.052921 -3.902177
LeftShoulder -16.131366 -31.733664 16.110304
LeftArm -7.906142 3.532846 -8.288728
LeftForeArm 9.483767 -0.000000 -1.652089
LeftHand -6.469077 0.000000 -0.355551
LeftHandThumb1 -26.253704 0.000000 33.147579
RightShoulder -11.504539 -6.022354 -10.378458
RightArm 2.066573 33.748854 17.287540
RightForeArm -37.076326 -0.000000 7.769699
RightHand -4.828988 0.000000 6.518055
RightHandThumb1 -24.326973 -0.000000 -32.862282
LeftUpLeg 9.767695 12.581799 6.252346
LeftLeg 76.319285 -0.000000 -0.000000
LeftFoot -19.186521 17.655759 -13.156658
LeftToeBase -72.263083 -0.000000 0.000000
RightUpLeg -104.307129 12.376881 9.841935
RightLeg 109.336448 -0.000000 -0.000000
RightFoot -39.443352 -23.213193 14.549624
RightToeBase 25.237981 -0.000000 -0.000000
431
root 18.876006 17.544274 -19.826699 -110.656596 82.018976 -127.091098
Spine -12.880446 -4.780223 9.955598
Head 8.543689 0.116066 -4.008517
LeftShoulder -16.291339 -31.794495 16.320061
LeftArm -7.799452 3.375392 -7.705894
LeftForeArm 9.606490 -0.000000 -1.732450
LeftHand -6.588741 0.000000 -0.443973
LeftHandThumb1 -26.253704 0.000000 33.147579
RightShoulder -11.626302 -5.883964 -10.546986
RightArm 1.754466 34.041136 16.661763
RightForeArm -37.423174 -0.000000 7.735712
RightHand -4.974233 -0.000000 6.536385
RightHandThumb1 -24.326973 -0.000000 -32.862282
LeftUpLeg 9.508747 12.621036 6.753134
LeftLeg 76.384829 -0.000000 -0.000000
LeftFoot -19.224884 17.452341 -13.164301
LeftToeBase -72.403056 -0.000000 0.000000
RightUpLeg -104.404930 12.463826 10.235027
RightLeg 109.198283 -0.000000 -0.000000
RightFoot -39.510509 -23.269512 14.632373
RightToeBase 25.221489 -0.000000 -0.000000
432
root 18.871562 17.538127 -19.818527 -110.665622 82.030026 -127.134003
Spine -13.087661 -4.802977 9.893561
Head 8.292180 0.111602 -3.972863
LeftShoulder -16.438739 -32.026781 16.723311
LeftArm -7.769759 3.274864 -7.256245
LeftForeArm 9.687549 -0.000000 -1.798294
LeftHand -6.722788 -0.000000 -0.372410
LeftHandThumb1 -26.253704 0.000000 33.147579
RightShoulder -11.749290 -5.711266 -10.661421
RightArm 1.346460 34.070384 16.017689
RightForeArm -37.422842 -0.000000 7.743278
RightHand -5.148795 -0.000000 6.575879
RightHandThumb1 -24.326973 -0.000000 -32.862282
LeftUpLeg 9.489159 12.635451 6.773965
LeftLeg 76.385489 -0.000000 -0.000000
LeftFoot -19.282258 17.401953 -13.164475
LeftToeBase -72.434606 -0.000000 0.000000
RightUpLeg -104.464943 12.448027 10.269445
RightLeg 109.211205 -0.000000 -0.000000
RightFoot -39.528811 -23.270640 14.700007
RightToeBase 25.268147 -0.000000 -0.000000
433
root 18.860175 17.532056 -19.817918 -110.639223 82.114318 -127.191136
Spine -13.321534 -4.784342 9.754875
Head 8.045348 0.064582 -3.917593
LeftShoulder -16.508347 -32.340028 17.063283
LeftArm -7.784398 3.431973 -6.752396
LeftForeArm 9.609178 -0.000000 -1.875003
LeftHand -6.870736 -0.000000 -0.399586
LeftHandThumb1 -26.253704 0.000000 33.147579
RightShoulder -11.909055 -5.523136 -10.831534
RightArm 1.025327 34.410043 15.525152
RightForeArm -37.789752 -0.000000 7.688306
RightHand -5.254113 0.000000 6.549114
RightHandThumb1 -24.326973 -0.000000 -32.862282
LeftUpLeg 9.410818 12.672566 6.678624
LeftLeg 76.382633 -0.000000 -0.000000
LeftFoot -19.363757 17.367091 -13.224571
LeftToeBase -72.468588 -0.000000 0.000000
RightUpLeg -104.599889 12.439191 10.198192
RightLeg 109.219239 -0.000000 -0.000000
RightFoot -39.492568 -23.235655 14.719533
RightToeBase 25.526954 -0.000000 -0.000000
434
root 18.836685 17.496201 -19.863434 -111.987605 82.735273 -128.369417
Spine -13.075625 -4.724677 8.903940
Head 7.472069 -0.049296 -3.646874
LeftShoulder -16.606445 -32.524653 17.555036
LeftArm -7.670559 3.150850 -6.365365
LeftForeArm 9.660009 -0.000000 -2.042979
LeftHand -6.947464 -0.000000 -0.427942
LeftHandThumb1 -26.253704 0.000000 33.147579
RightShoulder -12.128826 -5.210535 -10.933358
RightArm 0.688453 34.616612 15.071498
RightForeArm -37.841204 -0.000000 7.590280
RightHand -5.349787 -0.000000 6.509957
RightHandThumb1 -24.326973 -0.000000 -32.862282
LeftUpLeg 9.624929 12.711340 5.900682
LeftLeg 76.296704 -0.000000 -0.000000
LeftFoot -19.456649 17.498043 -13.292453
LeftToeBase -72.575378 -0.000000 0.000000
RightUpLeg -104.712301 12.306378 9.604049
RightLeg 109.421657 -0.000000 -0.000000
RightFoot -39.406191 -23.108099 14.580144
RightToeBase 25.615683 -0.000000 -0.000000
435
root 18.822008 17.482055 -19.872072 -112.208556 82.952842 -128.599130
Spine -13.145839 -4.678788 8.581483
Head 7.130708 -0.124081 -3.505659
LeftShoulder -16.723020 -32.740134 17.985256
LeftArm -7.651054 3.059222 -5.977789
LeftForeArm 9.735785 -0.000000 -2.050920
LeftHand -7.090857 -0.000000 -0.440229
LeftHandThumb1 -26.253704 0.000000 33.147579
RightShoulder -12.253017 -4.936951 -11.071826
RightArm 0.244031 34.807826 14.522699
RightForeArm -37.980247 0.000000 7.557938
RightHand -5.429265 0.000000 6.453010
RightHandThumb1 -24.326973 -0.000000 -32.862282
LeftUpLeg 9.639169 12.760710 5.647920
LeftLeg 76.268830 -0.000000 -0.000000
LeftFoot -19.536971 17.533684 -13.315513
LeftToeBase -72.342443 -0.000000 0.000000
RightUpLeg -104.836331 12.294271 9.410266
RightLeg 109.486069 -0.000000 -0.000000
RightFoot -39.366152 -22.994512 14.626174
RightToeBase 25.906889 -0.000000 -0.000000
436
root 18.808670 17.478377 -19.866839 -112.234117 82.997473 -128.755967
Spine -13.387533 -4.678392 8.478235
Head 6.868526 -0.152200 -3.438577
LeftShoulder -16.866423 -32.936818 18.341337
LeftArm -7.585747 3.088237 -5.581086
LeftForeArm 9.644240 -0.000000 -2.093275
LeftHand -7.212634 -0.000000 -0.633817
LeftHandThumb1 -26.253704 0.000000 33.147579
RightShoulder -12.405666 -4.745429 -11.197787
RightArm -0.109761 34.975572 13.987908
RightForeArm -37.955084 -0.000000 7.543767
RightHand -5.669243 -0.000000 6.421913
RightHandThumb1 -24.326973 -0.000000 -32.862282
LeftUpLeg 9.493361 12.753972 5.553504
LeftLeg 76.293433 -0.000000 -0.000000
LeftFoot -19.543006 17.492525 -13.323698
LeftToeBase -71.683038 -0.000000 0.000000
RightUpLeg -105.003659 12.284575 9.369157
RightLeg 109.496710 -0.000000 -0.000000
RightFoot -39.329295 -22.786285 14.894107
RightToeBase 25.211673 -0.000000 -0.000000
437
root 18.794783 17.476185 -19.860005 -112.196707 83.009807 -128.890331
Spine -13.677114 -4.672357 8.433073
Head 6.607098 -0.162390 -3.414807
LeftShoulder -17.007743 -33.061127 18.638210
LeftArm -7.473239 2.996569 -5.206646
LeftForeArm 9.668223 -0.000000 -2.142436
LeftHand -7.412638 -0.000000 -0.553348
LeftHandThumb1 -26.253704 0.000000 33.147579
RightShoulder -12.543595 -4.598360 -11.387415
RightArm -0.483732 35.359746 13.531108
RightForeArm -38.138805 -0.000000 7.536670
RightHand -5.742651 -0.000000 6.172712
RightHandThumb1 -24.326973 -0.000000 -32.862282
LeftUpLeg 9.308653 12.763129 5.519055
LeftLeg 76.307337 -0.000000 -0.000000
LeftFoot -19.760356 17.461657 -13.313774
LeftToeBase -71.948040 -0.000000 0.000000
RightUpLeg -105.198674 12.280543 9.346664
RightLeg 109.491333 -0.000000 -0.000000
RightFoot -39.362921 -22.708373 14.954312
RightToeBase 25.407277 -0.000000 -0.000000
438
root 18.780560 17.470968 -19.856775 -112.154267 83.061754 -128.991026
Spine -13.901016 -4.640505 8.338561
Head 6.317084 -0.212276 -3.373964
LeftShoulder -17.117726 -33.191727 18.942357
LeftArm -7.403035 3.061868 -4.879036
LeftForeArm 9.558358 -0.000000 -2.172205
LeftHand -7.585701 -0.000000 -0.405406
LeftHandThumb1 -26.253704 0.000000 33.147579
RightShoulder -12.680787 -4.379486 -11.552825
RightArm -0.912497 35.414513 13.007899
RightForeArm -38.035164 -0.000000 7.577226
RightHand -6.010793 -0.000000 6.061457
RightHandThumb1 -24.326973 -0.000000 -32.862282
LeftUpLeg 9.161450 12.779749 5.441110
LeftLeg 76.313702 -0.000000 -0.000000
LeftFoot -19.851401 17.422114 -13.443663
LeftToeBase -72.737681 -0.000000 0.000000
RightUpLeg -105.389780 12.286222 9.282802
RightLeg 109.501087 -0.000000 -0.000000
RightFoot -39.344960 -22.525237 15.126439
RightToeBase 25.182513 -0.000000 -0.000000
439
root 18.767261 17.464605 -19.855708 -112.104268 83.146269 -129.030200
Spine -14.017418 -4.607618 8.194934
Head 5.974216 -0.266619 -3.252530
LeftShoulder -17.208026 -33.523892 19.351273
LeftArm -7.532972 3.184450 -4.574777
LeftForeArm 9.542321 0.000000 -2.050922
LeftHand -7.817540 -0.000000 -0.370793
LeftHandThumb1 -26.253704 0.000000 33.147579
RightShoulder -12.839006 -4.091471 -11.733406
RightArm -1.291320 35.690739 12.562359
RightForeArm -38.147660 -0.000000 7.575128
RightHand -6.246634 -0.000000 5.883590
RightHandThumb1 -24.326973 -0.000000 -32.862282
LeftUpLeg 9.083556 12.822374 5.345785
LeftLeg 76.306115 -0.000000 -0.000000
LeftFoot -19.935692 17.415529 -13.448416
LeftToeBase -72.746217 -0.000000 0.000000
RightUpLeg -105.528024 12.298079 9.184340
RightLeg 109.510445 -0.000000 -0.000000
RightFoot -39.395170 -22.527920 15.073258
RightToeBase 25.667816 -0.000000 -0.000000
